<svg 
  width="18" 
  height="17" 
  viewBox="0 0 83 75" 
  fill="none" 
  xmlns="http://www.w3.org/2000/svg"
>
  <path 
    fill-rule="evenodd" 
    clip-rule="evenodd" 
    d="M41.415 10.0258C42.8994 9.55081 45.3451 9.23988 47.5446 9.80049C49.4974 10.2982 51.2867 11.4515 52.3145 14.2777L53.4445 17.3854L56.7478 17.2353C57.7359 17.1904 59.4346 17.4919 60.8226 18.5305C62.0152 19.4228 63.3967 21.1584 63.5471 24.9198L72.5399 24.56C72.2904 18.3214 69.7552 13.9737 66.2145 11.3244C64.0414 9.69842 61.6549 8.83393 59.515 8.46108C57.1415 4.27751 53.4817 2.02598 49.7674 1.07931C46.1972 0.169333 42.6301 0.45517 39.9927 1.08679C34.4428 -0.164776 29.8737 0.83807 26.4267 3.13029C23.8934 4.81492 22.179 7.05418 21.1379 9.15086C12.0533 12.7759 10.0851 20.8639 10.571 25.2368L19.516 24.243C19.3717 22.9444 19.9242 18.7398 25.7797 17.0668L28.1835 16.38L28.8703 13.9762C29.1237 13.0893 29.9343 11.606 31.4103 10.6245C32.7051 9.76351 34.9531 8.98764 38.8302 10.0732L40.1297 10.4371L41.415 10.0258ZM18.8505 29H64.1495C71.2225 29 77.3345 33.941 78.8165 40.857L82.2451 56.857C84.246 66.1947 77.1277 75 67.578 75H15.4219C5.87222 75 -1.24609 66.1947 0.754845 56.857L4.18342 40.857C5.66543 33.941 11.7774 29 18.8505 29ZM18.8505 38C16.0212 38 13.5764 39.9764 12.9836 42.7428L9.55507 58.7428C8.75469 62.4779 11.602 66 15.4219 66H67.578C71.3979 66 74.2452 62.4779 73.4449 58.7428L70.0163 42.7428C69.4235 39.9764 66.9787 38 64.1495 38H18.8505ZM26 51.6078C26 49.6153 27.6152 48 29.6078 48H53.0588C55.0513 48 56.6666 49.6153 56.6666 51.6078C56.6666 53.6004 55.0513 55.2157 53.0588 55.2157H29.6078C27.6152 55.2157 26 53.6004 26 51.6078Z" 
    fill="black"
  />
</svg>
