<svg 
  width="16" 
  height="17" 
  viewBox="0 0 70 76" 
  fill="none" 
  xmlns="http://www.w3.org/2000/svg"
>
<path 
  fill-rule="evenodd" 
  clip-rule="evenodd" 
  d="M5.20485 20.2887L25.9549 3.53401C31.0863 -0.609394 38.4137 -0.609402 43.5451 3.534L64.2952 20.2887C67.5868 22.9465 69.5 26.9503 69.5 31.1811V61.8571C69.5 69.5891 63.232 75.8571 55.5 75.8571H14C6.26802 75.8571 0 69.5891 0 61.8571V31.1811C0 26.9504 1.9132 22.9465 5.20485 20.2887ZM10.8589 27.291L31.6089 10.5363C33.4415 9.05651 36.0585 9.05651 37.8911 10.5363L58.6411 27.2909C59.8167 28.2402 60.5 29.6701 60.5 31.1811V61.8571C60.5 64.6185 58.2614 66.8571 55.5 66.8571H14C11.2386 66.8571 9 64.6185 9 61.8571V31.1811C9 29.6701 9.68328 28.2402 10.8589 27.291Z" 
  fill="black"
/>
</svg>
