<svg 
  width="16" 
  height="16" 
  viewBox="0 0 71 70" 
  fill="none" 
  xmlns="http://www.w3.org/2000/svg"
>
  <path 
    fill-rule="evenodd" 
    clip-rule="evenodd" 
    d="M34.0165 33.9129C34.5114 33.8972 35.006 33.8893 35.5 33.8893C35.9939 33.8893 36.4886 33.8972 36.9835 33.9129C43.1878 33.1793 48 27.9016 48 21.5C48 14.5964 42.4035 9 35.5 9C28.5964 9 23 14.5964 23 21.5C23 27.9016 27.8122 33.1793 34.0165 33.9129ZM20.1038 36.507C16.3269 32.6327 14 27.3381 14 21.5C14 9.62588 23.6259 0 35.5 0C47.3741 0 57 9.62588 57 21.5C57 27.3381 54.6731 32.6327 50.8962 36.507C59.1588 39.4547 66.1501 44.863 69.3377 52.5851C71.3109 57.365 70.0033 62.1696 67.1944 65.3593C64.5879 68.3193 60.8 69.8893 57 69.8893H14C10.2 69.8893 6.41213 68.3193 3.8056 65.3593C0.996722 62.1696 -0.310861 57.365 1.66228 52.5851C4.84992 44.863 11.8412 39.4547 20.1038 36.507ZM33.7348 42.9286C22.3663 43.4364 12.9557 48.8139 9.98135 56.0192C8.9277 58.5717 11.2386 60.8893 14 60.8893L57 60.8893C59.7614 60.8893 62.0723 58.5717 61.0186 56.0192C58.0443 48.8139 48.6337 43.4364 37.2651 42.9286C36.683 42.9759 36.0943 43 35.5 43C34.9057 43 34.317 42.9759 33.7348 42.9286Z" 
    fill="black"
  />
</svg>
