<svg 
  width="14" 
  height="16" 
  viewBox="0 0 64 73" 
  fill="none" 
  xmlns="http://www.w3.org/2000/svg"
>
<path 
  fill-rule="evenodd" 
  clip-rule="evenodd" 
  d="M50 0H14C6.26801 0 0 6.26801 0 14V58.1177C0 65.8496 6.26801 72.1177 14 72.1177H37.4114C40.8499 72.1177 44.1682 70.8522 46.7335 68.5626L59.3221 57.3274C62.2983 54.6711 64 50.8716 64 46.8824V14C64 6.26801 57.732 0 50 0ZM55 46.8824C55 48.3071 54.3922 49.6641 53.3293 50.6128L40.7407 61.848C39.8245 62.6658 38.6395 63.1177 37.4114 63.1177H14C11.2386 63.1177 9 60.879 9 58.1177V14C9 11.2386 11.2386 9 14 9H50C52.7614 9 55 11.2386 55 14V46.8824ZM19.8235 19.8235C17.831 19.8235 16.2157 21.4388 16.2157 23.4314C16.2157 25.424 17.831 27.0392 19.8235 27.0392H43.2745C45.2671 27.0392 46.8824 25.424 46.8824 23.4314C46.8824 21.4388 45.2671 19.8235 43.2745 19.8235H19.8235ZM16.2157 50.4901C16.2157 48.4976 17.831 46.8823 19.8235 46.8823H30.6471C32.6396 46.8823 34.2549 48.4976 34.2549 50.4901C34.2549 52.4827 32.6396 54.098 30.6471 54.098H19.8235C17.831 54.098 16.2157 52.4827 16.2157 50.4901ZM19.8235 33.3529C17.831 33.3529 16.2157 34.9682 16.2157 36.9608C16.2157 38.9533 17.831 40.5686 19.8235 40.5686H43.2745C45.2671 40.5686 46.8824 38.9533 46.8824 36.9608C46.8824 34.9682 45.2671 33.3529 43.2745 33.3529H19.8235Z" 
  fill="black"
/>
</svg>
