<svg 
  width="16" 
  height="16" 
  viewBox="0 0 71 71" 
  fill="none" 
  xmlns="http://www.w3.org/2000/svg"
>
  <path 
    fill-rule="evenodd" 
    clip-rule="evenodd" 
    d="M57 0H14C6.26802 0 0 6.26801 0 14V57C0 64.732 6.26801 71 14 71H57C64.732 71 71 64.732 71 57V14C71 6.26802 64.732 0 57 0ZM9 14C9 11.2386 11.2386 9 14 9H57C59.7614 9 62 11.2386 62 14V57C62 59.7614 59.7614 62 57 62H14C11.2386 62 9 59.7614 9 57V14ZM35.0181 17.6727C37.1469 17.6727 38.8727 19.3985 38.8727 21.5273V32.1273H49.4727C51.6015 32.1273 53.3273 33.8531 53.3273 35.9819C53.3273 38.1107 51.6015 39.8364 49.4727 39.8364H38.8727V50.4364C38.8727 52.5652 37.1469 54.2909 35.0181 54.2909C32.8893 54.2909 31.1636 52.5652 31.1636 50.4364V39.8364H20.5637C18.4348 39.8364 16.7091 38.1107 16.7091 35.9819C16.7091 33.8531 18.4348 32.1273 20.5637 32.1273H31.1636V21.5273C31.1636 19.3985 32.8893 17.6727 35.0181 17.6727Z" 
    fill="black"
  />
</svg>
