<svg 
  width="15" 
  height="16" 
  viewBox="0 0 61 66" 
  fill="none" 
  xmlns="http://www.w3.org/2000/svg"
>
<path 
  fill-rule="evenodd" 
  clip-rule="evenodd" 
  d="M14 0H47C54.732 0 61 6.268 61 14V50.8855C61 61.689 49.282 68.4214 39.9488 62.9801L44.4817 55.205C47.815 57.1483 52 54.7439 52 50.8855V14C52 11.2386 49.7614 9 47 9H14C11.2386 9 9 11.2386 9 14V51.071C9 54.8879 13.1042 57.2973 16.437 55.4369L28.4765 48.7165C30.0203 47.8547 31.9044 47.8724 33.4318 48.7629L44.4817 55.205L39.9488 62.9801L30.8704 57.6874L20.8237 63.2955C11.4918 68.5045 0 61.7583 0 51.071V14C0 6.26801 6.26801 0 14 0Z" 
  fill="black"
/>
</svg>
