<svg
  width="40"
  height="33"
  viewBox="0 0 40 33"
  fill="none"
  xmlns="http://www.w3.org/2000/svg">
  <g clip-path="url(#clip0_79_307)">
    <path d="M5.94647 17.3191C5.72818 17.3191 5.5018 17.3036 5.27542 17.2727C4.03843 17.1024 2.82166 16.4948 1.83934 15.5582C0.861071 14.6216 0.226407 13.4528 0.0485395 12.2724C-0.141455 11.0068 0.23045 9.81868 1.06724 9.01755C1.90402 8.21642 3.14505 7.86036 4.46693 8.04226C5.70392 8.21255 6.9207 8.82017 7.90301 9.75676C8.88128 10.6933 9.51595 11.8621 9.69382 13.0426C9.88381 14.3081 9.5119 15.4963 8.67512 16.2974C7.97982 16.9631 7.00963 17.3191 5.94647 17.3191ZM3.7878 9.93092C3.38356 9.93092 2.87825 10.0199 2.49422 10.3876C1.97274 10.8869 1.99296 11.6106 2.04955 11.9976C2.16274 12.7562 2.60741 13.5573 3.27037 14.192C3.93333 14.8267 4.76607 15.2524 5.56244 15.3608C5.96668 15.415 6.72262 15.4343 7.24814 14.9312C7.77365 14.4281 7.75344 13.7044 7.69685 13.3173C7.58366 12.5588 7.13899 11.7576 6.47603 11.1229C5.81307 10.4882 4.98032 10.0625 4.18396 9.95414C4.07077 9.94253 3.93737 9.93092 3.7878 9.93092Z"
      fill="#EC691A"
    />
    <path d="M14.1001 10.6159C11.6988 10.6159 9.74634 8.26674 9.74634 5.37958C9.74634 2.49241 11.6988 0.143204 14.1001 0.143204C16.5013 0.143204 18.4538 2.49241 18.4538 5.37958C18.4538 8.26674 16.5013 10.6159 14.1001 10.6159ZM14.1001 2.0783C12.8348 2.0783 11.7676 3.59155 11.7676 5.37958C11.7676 7.1676 12.8348 8.68085 14.1001 8.68085C15.3653 8.68085 16.4325 7.1676 16.4325 5.37958C16.4325 3.58768 15.3653 2.0783 14.1001 2.0783Z"
      fill="#EC691A"
    />
    <path d="M25.3138 10.7553C22.8317 10.7553 20.8105 8.34413 20.8105 5.37569C20.8105 2.41113 22.8317 -0.00387573 25.3138 -0.00387573C27.7958 -0.00387573 29.8171 2.40726 29.8171 5.37569C29.8171 8.34413 27.7999 10.7553 25.3138 10.7553ZM25.3138 2.21762C24.1293 2.21762 23.1268 3.66507 23.1268 5.37569C23.1268 7.08632 24.1293 8.53377 25.3138 8.53377C26.4982 8.53377 27.5007 7.08632 27.5007 5.37569C27.5007 3.66507 26.4982 2.21762 25.3138 2.21762Z"
      fill="#F7B990"
    />
    <path d="M34.0414 17.3114C33.0066 17.3114 32.0404 16.9785 31.329 16.2974C30.4922 15.4963 30.1203 14.3081 30.3103 13.0426C30.4881 11.8583 31.1228 10.6933 32.1011 9.75289C33.0793 8.8163 34.3002 8.20868 35.5331 8.03839C36.859 7.85649 38.096 8.21255 38.9328 9.01368C39.7696 9.81481 40.1415 11.003 39.9515 12.2685C39.7736 13.4528 39.139 14.6177 38.1607 15.5582C36.9601 16.7115 35.4361 17.3114 34.0414 17.3114ZM36.2122 9.93092C36.0627 9.93092 35.9293 9.94253 35.8201 9.95801C35.0278 10.0664 34.191 10.4921 33.528 11.1268C32.8651 11.7615 32.4204 12.5588 32.3072 13.3212C32.2506 13.7082 32.2304 14.432 32.7559 14.9351C33.6251 15.7672 35.4442 15.4266 36.7297 14.1959C37.3926 13.5612 37.8373 12.7639 37.9505 12.0015C38.0071 11.6145 38.0273 10.8907 37.5018 10.3876C37.1218 10.0199 36.6165 9.93092 36.2122 9.93092Z"
      fill="#EC691A"
    />
    <path d="M27.6786 15.2834L28.0101 15.2563C28.568 15.2137 28.9803 14.7454 28.9358 14.2152C28.8914 13.685 28.4022 13.2825 27.8484 13.3289L24.6993 13.5689C24.4325 13.5883 24.1819 13.7121 24.0081 13.9056C23.8343 14.0991 23.7494 14.3545 23.7696 14.61L24 17.2649C24.0445 17.7719 24.4851 18.1512 25.0066 18.1512C25.0349 18.1512 25.0632 18.1512 25.0915 18.1473C25.6493 18.1048 26.0616 17.6365 26.0172 17.1024L26.005 16.9592C27.3471 18.3718 28.095 20.2024 28.095 22.1646C28.095 26.4489 24.4527 29.9359 19.9778 29.9359C15.5028 29.9359 11.8605 26.4489 11.8605 22.1646C11.8605 17.8803 15.5028 14.3971 19.9778 14.3971C20.6488 14.3971 21.1905 13.8785 21.1905 13.2361C21.1905 12.5936 20.6488 12.075 19.9778 12.075C14.1647 12.075 9.43506 16.6031 9.43506 22.1685C9.43506 27.7338 14.1647 32.2619 19.9778 32.2619C25.7908 32.2619 30.5205 27.7338 30.5205 22.1685C30.5205 19.6025 29.4815 17.1372 27.6786 15.2834Z"
      fill="#EC691A"
    />
  </g>
  <defs>
    <clipPath id="clip0_79_307">
      <rect
        width="40"
        height="32.2581"
        fill="white"
        />
      </clipPath>
    </defs>
  </svg>

